<?xml version="1.0" encoding="UTF-8" standalone="no"?>
<!-- Created by Flowgorithm 2.25.1 (http://flowgorithm.org) -->

<svg xmlns:svg="http://www.w3.org/2000/svg" xmlns="http://www.w3.org/2000/svg" version="1.1" width="3125" height="9075">
	<rect x="0" y="0" width="3125" height="9075" fill="#000055"/>
	<g>
		<polyline fill="none" stroke="#AAAAAA" stroke-width="6" stroke-dasharray="none" points="675,200 675,475"/>
		<polyline fill="none" stroke="#AAAAAA" stroke-width="6" stroke-dasharray="none" points="675,8800 675,8861"/>
		<polygon fill="#AAAAAA" stroke="none" points="675,8875 688,8850 661,8850"/>
		<g>
			<path fill="#FF55FF" stroke="#000000" stroke-width="3" stroke-dasharray="none" d="M 575,100 A 50,50 0 0,0 575,200 L 775,200 A 50,50 0 0,0 775,100 Z"/>
			<text x="675" y="115" fill="#000055" font-family="Arial" font-size="32pt" text-anchor="middle" direction="ltr">
				<tspan x="675" dy="50" unicode-bidi="embed">Inizio</tspan>
			</text>
		</g>
		<g>
			<path fill="#FF55FF" stroke="#000000" stroke-width="3" stroke-dasharray="none" d="M 575,8875 A 50,50 0 0,0 575,8975 L 775,8975 A 50,50 0 0,0 775,8875 Z"/>
			<text x="675" y="8890" fill="#000055" font-family="Arial" font-size="32pt" text-anchor="middle" direction="ltr">
				<tspan x="675" dy="50" unicode-bidi="embed">Fine</tspan>
			</text>
		</g>
		<g>
			<polyline fill="none" stroke="#AAAAAA" stroke-width="6" stroke-dasharray="none" points="675,475 675,736"/>
			<polygon fill="#AAAAAA" stroke="none" points="675,750 688,725 661,725"/>
			<polyline fill="none" stroke="#AAAAAA" stroke-width="6" stroke-dasharray="none" points="675,925 675,986"/>
			<polygon fill="#AAAAAA" stroke="none" points="675,1000 688,975 661,975"/>
			<polyline fill="none" stroke="#AAAAAA" stroke-width="6" stroke-dasharray="none" points="675,1175 675,1236"/>
			<polygon fill="#AAAAAA" stroke="none" points="675,1250 688,1225 661,1225"/>
			<polyline fill="none" stroke="#AAAAAA" stroke-width="6" stroke-dasharray="none" points="675,1400 675,1461"/>
			<polygon fill="#AAAAAA" stroke="none" points="675,1475 688,1450 661,1450"/>
			<polyline fill="none" stroke="#AAAAAA" stroke-width="6" stroke-dasharray="none" points="675,1625 675,1686"/>
			<polygon fill="#AAAAAA" stroke="none" points="675,1700 688,1675 661,1675"/>
			<polyline fill="none" stroke="#AAAAAA" stroke-width="6" stroke-dasharray="none" points="675,1800 675,1861"/>
			<polygon fill="#AAAAAA" stroke="none" points="675,1875 688,1850 661,1850"/>
			<polyline fill="none" stroke="#AAAAAA" stroke-width="6" stroke-dasharray="none" points="675,4125 675,4186"/>
			<polygon fill="#AAAAAA" stroke="none" points="675,4200 688,4175 661,4175"/>
			<polyline fill="none" stroke="#AAAAAA" stroke-width="6" stroke-dasharray="none" points="675,6300 675,6361"/>
			<polygon fill="#AAAAAA" stroke="none" points="675,6375 688,6350 661,6350"/>
			<g>
				<polyline fill="none" stroke="#AAAAAA" stroke-width="6" stroke-dasharray="6,12" points="675,475 800,475"/>
				<g>
					<path fill="#000055" stroke="#AAAAAA" stroke-width="3" stroke-dasharray="6,6" d="M 800,275 L 800,675 L 1350,675 L 1350,275 Z"/>
					<text x="1075" y="290" fill="#AAAAAA" font-family="Arial" font-size="32pt" text-anchor="middle" direction="ltr">
						<tspan x="1075" dy="50" unicode-bidi="embed">Algoritmo: Gioco di</tspan>
						<tspan x="1075" dy="50" unicode-bidi="embed"> carte&#13;</tspan>
						<tspan x="1075" dy="50" unicode-bidi="embed"></tspan>
						<tspan x="1075" dy="50" unicode-bidi="embed">&#13;</tspan>
						<tspan x="1075" dy="50" unicode-bidi="embed">Programmatore: Simone</tspan>
						<tspan x="1075" dy="50" unicode-bidi="embed"> D'Anna&#13;</tspan>
						<tspan x="1075" dy="50" unicode-bidi="embed">Data: 05/12/2020</tspan>
					</text>
				</g>
			</g>
			<g>
				<path fill="#FFFF55" stroke="#000000" stroke-width="3" stroke-dasharray="none" d="M 425,750 L 425,925 L 925,925 L 925,750 Z"/>
				<polyline fill="none" stroke="#000000" stroke-width="3" stroke-dasharray="none" points="425,775 925,775"/>
				<polyline fill="none" stroke="#000000" stroke-width="3" stroke-dasharray="none" points="450,750 450,925"/>
				<text x="687" y="790" fill="#000000" font-family="Arial" font-size="32pt" text-anchor="middle" direction="ltr">
					<tspan x="687" dy="50" unicode-bidi="embed">Dichiara num1, num2,</tspan>
					<tspan x="687" dy="50" unicode-bidi="embed"> risultato: Intero</tspan>
				</text>
			</g>
			<g>
				<path fill="#FFFF55" stroke="#000000" stroke-width="3" stroke-dasharray="none" d="M 450,1000 L 450,1175 L 900,1175 L 900,1000 Z"/>
				<polyline fill="none" stroke="#000000" stroke-width="3" stroke-dasharray="none" points="450,1025 900,1025"/>
				<polyline fill="none" stroke="#000000" stroke-width="3" stroke-dasharray="none" points="475,1000 475,1175"/>
				<text x="687" y="1040" fill="#000000" font-family="Arial" font-size="32pt" text-anchor="middle" direction="ltr">
					<tspan x="687" dy="50" unicode-bidi="embed">Dichiara casecarta,</tspan>
					<tspan x="687" dy="50" unicode-bidi="embed"> letterapic: Stringa</tspan>
				</text>
			</g>
			<g>
				<path fill="#55FF55" stroke="#000000" stroke-width="3" stroke-dasharray="none" d="M 375,1250 L 300,1400 L 975,1400 L 1050,1250 Z"/>
				<text x="675" y="1265" fill="#000000" font-family="Arial" font-size="32pt" text-anchor="middle" direction="ltr">
					<tspan x="675" dy="50" unicode-bidi="embed">Scrivi &quot;Cuori Picche Fiori o</tspan>
					<tspan x="675" dy="50" unicode-bidi="embed"> Quadri&quot;</tspan>
				</text>
			</g>
			<g>
				<path fill="#55FF55" stroke="#000000" stroke-width="3" stroke-dasharray="none" d="M 375,1475 L 300,1625 L 975,1625 L 1050,1475 Z"/>
				<text x="675" y="1490" fill="#000000" font-family="Arial" font-size="32pt" text-anchor="middle" direction="ltr">
					<tspan x="675" dy="50" unicode-bidi="embed">Scrivi &quot;Inserire solo </tspan>
					<tspan x="675" dy="50" unicode-bidi="embed"> l' iniziale della carta scelta.&quot;</tspan>
				</text>
			</g>
			<g>
				<path fill="#55AAFF" stroke="#000000" stroke-width="3" stroke-dasharray="none" d="M 475,1700 L 425,1800 L 875,1800 L 925,1700 Z"/>
				<text x="675" y="1715" fill="#000000" font-family="Arial" font-size="32pt" text-anchor="middle" direction="ltr">
					<tspan x="675" dy="50" unicode-bidi="embed">Leggi casecarta</tspan>
				</text>
			</g>
			<g>
				<polyline fill="none" stroke="#AAAAAA" stroke-width="6" stroke-dasharray="none" points="1050,2075 1375,2075 1375,2311"/>
				<polygon fill="#AAAAAA" stroke="none" points="1375,2325 1388,2300 1361,2300"/>
				<polyline fill="none" stroke="#AAAAAA" stroke-width="6" stroke-dasharray="none" points="1375,4000 1375,4100 713,4100"/>
				<polygon fill="#AAAAAA" stroke="none" points="700,4100 724,4113 724,4086"/>
				<polyline fill="none" stroke="#AAAAAA" stroke-width="6" stroke-dasharray="none" points="300,2075 125,2075 125,4100 636,4100"/>
				<polygon fill="#AAAAAA" stroke="none" points="650,4100 625,4086 625,4113"/>
				<g>
					<path fill="#FFAAAA" stroke="#000000" stroke-width="3" stroke-dasharray="none" d="M 675,1875 L 275,2075 L 675,2275 L 1075,2075 Z"/>
					<text x="675" y="2015" fill="#000055" font-family="Arial" font-size="32pt" text-anchor="middle" direction="ltr">
						<tspan x="675" dy="50" unicode-bidi="embed">casecarta == &quot;f&quot; || casecarta</tspan>
						<tspan x="675" dy="50" unicode-bidi="embed"> == &quot;F&quot;</tspan>
					</text>
				</g>
				<g>
					<polyline fill="none" stroke="#AAAAAA" stroke-width="6" stroke-dasharray="none" points="1375,2475 1375,2536"/>
					<polygon fill="#AAAAAA" stroke="none" points="1375,2550 1388,2525 1361,2525"/>
					<polyline fill="none" stroke="#AAAAAA" stroke-width="6" stroke-dasharray="none" points="1375,2650 1375,2711"/>
					<polygon fill="#AAAAAA" stroke="none" points="1375,2725 1388,2700 1361,2700"/>
					<polyline fill="none" stroke="#AAAAAA" stroke-width="6" stroke-dasharray="none" points="1375,2825 1375,2886"/>
					<polygon fill="#AAAAAA" stroke="none" points="1375,2900 1388,2875 1361,2875"/>
					<polyline fill="none" stroke="#AAAAAA" stroke-width="6" stroke-dasharray="none" points="1375,3050 1375,3111"/>
					<polygon fill="#AAAAAA" stroke="none" points="1375,3125 1388,3100 1361,3100"/>
					<polyline fill="none" stroke="#AAAAAA" stroke-width="6" stroke-dasharray="none" points="1375,3225 1375,3286"/>
					<polygon fill="#AAAAAA" stroke="none" points="1375,3300 1388,3275 1361,3275"/>
					<polyline fill="none" stroke="#AAAAAA" stroke-width="6" stroke-dasharray="none" points="1375,3400 1375,3461"/>
					<polygon fill="#AAAAAA" stroke="none" points="1375,3475 1388,3450 1361,3450"/>
					<g>
						<path fill="#55FF55" stroke="#000000" stroke-width="3" stroke-dasharray="none" d="M 1150,2325 L 1075,2475 L 1600,2475 L 1675,2325 Z"/>
						<text x="1375" y="2340" fill="#000000" font-family="Arial" font-size="32pt" text-anchor="middle" direction="ltr">
							<tspan x="1375" dy="50" unicode-bidi="embed">Scrivi &quot;Hai</tspan>
							<tspan x="1375" dy="50" unicode-bidi="embed"> selezionato: Fiori&quot;</tspan>
						</text>
					</g>
					<g>
						<path fill="#55FF55" stroke="#000000" stroke-width="3" stroke-dasharray="none" d="M 1075,2550 L 1025,2650 L 1675,2650 L 1725,2550 Z"/>
						<text x="1375" y="2565" fill="#000000" font-family="Arial" font-size="32pt" text-anchor="middle" direction="ltr">
							<tspan x="1375" dy="50" unicode-bidi="embed">Scrivi &quot;Inserire un numero&quot;</tspan>
						</text>
					</g>
					<g>
						<path fill="#55AAFF" stroke="#000000" stroke-width="3" stroke-dasharray="none" d="M 1225,2725 L 1175,2825 L 1525,2825 L 1575,2725 Z"/>
						<text x="1375" y="2740" fill="#000000" font-family="Arial" font-size="32pt" text-anchor="middle" direction="ltr">
							<tspan x="1375" dy="50" unicode-bidi="embed">Leggi num1</tspan>
						</text>
					</g>
					<g>
						<path fill="#55FF55" stroke="#000000" stroke-width="3" stroke-dasharray="none" d="M 1125,2900 L 1050,3050 L 1625,3050 L 1700,2900 Z"/>
						<text x="1375" y="2915" fill="#000000" font-family="Arial" font-size="32pt" text-anchor="middle" direction="ltr">
							<tspan x="1375" dy="50" unicode-bidi="embed">Scrivi &quot;Inserire un altro</tspan>
							<tspan x="1375" dy="50" unicode-bidi="embed"> numero&quot;</tspan>
						</text>
					</g>
					<g>
						<path fill="#55AAFF" stroke="#000000" stroke-width="3" stroke-dasharray="none" d="M 1225,3125 L 1175,3225 L 1525,3225 L 1575,3125 Z"/>
						<text x="1375" y="3140" fill="#000000" font-family="Arial" font-size="32pt" text-anchor="middle" direction="ltr">
							<tspan x="1375" dy="50" unicode-bidi="embed">Leggi num2</tspan>
						</text>
					</g>
					<g>
						<path fill="#FFFF55" stroke="#000000" stroke-width="3" stroke-dasharray="none" d="M 1125,3300 L 1125,3400 L 1625,3400 L 1625,3300 Z"/>
						<text x="1375" y="3315" fill="#000000" font-family="Arial" font-size="32pt" text-anchor="middle" direction="ltr">
							<tspan x="1375" dy="50" unicode-bidi="embed">risultato = num1+num2</tspan>
						</text>
					</g>
					<g>
						<polyline fill="none" stroke="#AAAAAA" stroke-width="6" stroke-dasharray="none" points="1575,3600 1725,3600 1725,3761"/>
						<polygon fill="#AAAAAA" stroke="none" points="1725,3775 1738,3750 1711,3750"/>
						<polyline fill="none" stroke="#AAAAAA" stroke-width="6" stroke-dasharray="none" points="1725,3875 1725,3975 1413,3975"/>
						<polygon fill="#AAAAAA" stroke="none" points="1400,3975 1424,3988 1424,3961"/>
						<polyline fill="none" stroke="#AAAAAA" stroke-width="6" stroke-dasharray="none" points="1175,3600 1000,3600 1000,3761"/>
						<polygon fill="#AAAAAA" stroke="none" points="1000,3775 1013,3750 986,3750"/>
						<polyline fill="none" stroke="#AAAAAA" stroke-width="6" stroke-dasharray="none" points="1000,3875 1000,3975 1336,3975"/>
						<polygon fill="#AAAAAA" stroke="none" points="1350,3975 1325,3961 1325,3988"/>
						<g>
							<path fill="#FFAAAA" stroke="#000000" stroke-width="3" stroke-dasharray="none" d="M 1375,3475 L 1150,3600 L 1375,3725 L 1600,3600 Z"/>
							<text x="1375" y="3565" fill="#000055" font-family="Arial" font-size="32pt" text-anchor="middle" direction="ltr">
								<tspan x="1375" dy="50" unicode-bidi="embed">risultato%2==0</tspan>
							</text>
						</g>
						<g>
							<path fill="#55FF55" stroke="#000000" stroke-width="3" stroke-dasharray="none" d="M 1500,3775 L 1450,3875 L 1950,3875 L 2000,3775 Z"/>
							<text x="1725" y="3790" fill="#000000" font-family="Arial" font-size="32pt" text-anchor="middle" direction="ltr">
								<tspan x="1725" dy="50" unicode-bidi="embed">Scrivi &quot;Hai vinto !!&quot;</tspan>
							</text>
						</g>
						<g>
							<path fill="#55FF55" stroke="#000000" stroke-width="3" stroke-dasharray="none" d="M 775,3775 L 725,3875 L 1225,3875 L 1275,3775 Z"/>
							<text x="1000" y="3790" fill="#000000" font-family="Arial" font-size="32pt" text-anchor="middle" direction="ltr">
								<tspan x="1000" dy="50" unicode-bidi="embed">Scrivi &quot;Hai Perso !!&quot;</tspan>
							</text>
						</g>
						<ellipse cx="1375" cy="3975" rx="25" ry="25" fill="#FFAAAA" stroke="#000000" stroke-width="3"/>
						<text x="1675" y="3515" fill="#FFFFFF" font-family="Arial" font-size="32pt" text-anchor="middle" direction="ltr">
							<tspan x="1675" dy="50" unicode-bidi="embed">Vero</tspan>
						</text>
						<text x="1062" y="3515" fill="#FFFFFF" font-family="Arial" font-size="32pt" text-anchor="middle" direction="ltr">
							<tspan x="1062" dy="50" unicode-bidi="embed">Falso</tspan>
						</text>
					</g>
				</g>
				<g>
				</g>
				<ellipse cx="675" cy="4100" rx="25" ry="25" fill="#FFAAAA" stroke="#000000" stroke-width="3"/>
				<text x="1150" y="1990" fill="#FFFFFF" font-family="Arial" font-size="32pt" text-anchor="middle" direction="ltr">
					<tspan x="1150" dy="50" unicode-bidi="embed">Vero</tspan>
				</text>
				<text x="187" y="1990" fill="#FFFFFF" font-family="Arial" font-size="32pt" text-anchor="middle" direction="ltr">
					<tspan x="187" dy="50" unicode-bidi="embed">Falso</tspan>
				</text>
			</g>
			<g>
				<polyline fill="none" stroke="#AAAAAA" stroke-width="6" stroke-dasharray="none" points="1075,4425 1525,4425 1525,4686"/>
				<polygon fill="#AAAAAA" stroke="none" points="1525,4700 1538,4675 1511,4675"/>
				<polyline fill="none" stroke="#AAAAAA" stroke-width="6" stroke-dasharray="none" points="1525,6175 1525,6275 713,6275"/>
				<polygon fill="#AAAAAA" stroke="none" points="700,6275 724,6288 724,6261"/>
				<polyline fill="none" stroke="#AAAAAA" stroke-width="6" stroke-dasharray="none" points="275,4425 100,4425 100,6275 636,6275"/>
				<polygon fill="#AAAAAA" stroke="none" points="650,6275 625,6261 625,6288"/>
				<g>
					<path fill="#FFAAAA" stroke="#000000" stroke-width="3" stroke-dasharray="none" d="M 675,4200 L 250,4425 L 675,4650 L 1100,4425 Z"/>
					<text x="675" y="4315" fill="#000055" font-family="Arial" font-size="32pt" text-anchor="middle" direction="ltr">
						<tspan x="675" dy="50" unicode-bidi="embed">casecarta == &quot;c&quot; ||</tspan>
						<tspan x="675" dy="50" unicode-bidi="embed"> casecarta == &quot;C&quot; ||</tspan>
						<tspan x="675" dy="50" unicode-bidi="embed"> casecarta == &quot;q&quot; ||</tspan>
						<tspan x="675" dy="50" unicode-bidi="embed"> casecarta == &quot;Q&quot;</tspan>
					</text>
				</g>
				<g>
					<polyline fill="none" stroke="#AAAAAA" stroke-width="6" stroke-dasharray="none" points="1525,4900 1525,4961"/>
					<polygon fill="#AAAAAA" stroke="none" points="1525,4975 1538,4950 1511,4950"/>
					<polyline fill="none" stroke="#AAAAAA" stroke-width="6" stroke-dasharray="none" points="1525,5075 1525,5136"/>
					<polygon fill="#AAAAAA" stroke="none" points="1525,5150 1538,5125 1511,5125"/>
					<polyline fill="none" stroke="#AAAAAA" stroke-width="6" stroke-dasharray="none" points="1525,5250 1525,5311"/>
					<polygon fill="#AAAAAA" stroke="none" points="1525,5325 1538,5300 1511,5300"/>
					<polyline fill="none" stroke="#AAAAAA" stroke-width="6" stroke-dasharray="none" points="1525,5425 1525,5486"/>
					<polygon fill="#AAAAAA" stroke="none" points="1525,5500 1538,5475 1511,5475"/>
					<g>
						<path fill="#55FF55" stroke="#000000" stroke-width="3" stroke-dasharray="none" d="M 1300,4700 L 1200,4900 L 1750,4900 L 1850,4700 Z"/>
						<text x="1525" y="4715" fill="#000000" font-family="Arial" font-size="32pt" text-anchor="middle" direction="ltr">
							<tspan x="1525" dy="50" unicode-bidi="embed">Scrivi &quot;Hai</tspan>
							<tspan x="1525" dy="50" unicode-bidi="embed"> selezionato: Cuori o</tspan>
							<tspan x="1525" dy="50" unicode-bidi="embed"> Quadri&quot;</tspan>
						</text>
					</g>
					<g>
						<path fill="#55FF55" stroke="#000000" stroke-width="3" stroke-dasharray="none" d="M 1225,4975 L 1175,5075 L 1825,5075 L 1875,4975 Z"/>
						<text x="1525" y="4990" fill="#000000" font-family="Arial" font-size="32pt" text-anchor="middle" direction="ltr">
							<tspan x="1525" dy="50" unicode-bidi="embed">Scrivi &quot;Inserire un numero&quot;</tspan>
						</text>
					</g>
					<g>
						<path fill="#55AAFF" stroke="#000000" stroke-width="3" stroke-dasharray="none" d="M 1375,5150 L 1325,5250 L 1675,5250 L 1725,5150 Z"/>
						<text x="1525" y="5165" fill="#000000" font-family="Arial" font-size="32pt" text-anchor="middle" direction="ltr">
							<tspan x="1525" dy="50" unicode-bidi="embed">Leggi num1</tspan>
						</text>
					</g>
					<g>
						<path fill="#FFFF55" stroke="#000000" stroke-width="3" stroke-dasharray="none" d="M 1300,5325 L 1300,5425 L 1750,5425 L 1750,5325 Z"/>
						<text x="1525" y="5340" fill="#000000" font-family="Arial" font-size="32pt" text-anchor="middle" direction="ltr">
							<tspan x="1525" dy="50" unicode-bidi="embed">risultato = num1 * 3</tspan>
						</text>
					</g>
					<g>
						<polyline fill="none" stroke="#AAAAAA" stroke-width="6" stroke-dasharray="none" points="1875,5700 2025,5700 2025,5936"/>
						<polygon fill="#AAAAAA" stroke="none" points="2025,5950 2038,5925 2011,5925"/>
						<polyline fill="none" stroke="#AAAAAA" stroke-width="6" stroke-dasharray="none" points="2025,6050 2025,6150 1563,6150"/>
						<polygon fill="#AAAAAA" stroke="none" points="1550,6150 1574,6163 1574,6136"/>
						<polyline fill="none" stroke="#AAAAAA" stroke-width="6" stroke-dasharray="none" points="1175,5700 1000,5700 1000,5936"/>
						<polygon fill="#AAAAAA" stroke="none" points="1000,5950 1013,5925 986,5925"/>
						<polyline fill="none" stroke="#AAAAAA" stroke-width="6" stroke-dasharray="none" points="1000,6050 1000,6150 1486,6150"/>
						<polygon fill="#AAAAAA" stroke="none" points="1500,6150 1475,6136 1475,6163"/>
						<g>
							<path fill="#FFAAAA" stroke="#000000" stroke-width="3" stroke-dasharray="none" d="M 1525,5500 L 1150,5700 L 1525,5900 L 1900,5700 Z"/>
							<text x="1525" y="5640" fill="#000055" font-family="Arial" font-size="32pt" text-anchor="middle" direction="ltr">
								<tspan x="1525" dy="50" unicode-bidi="embed">risultato &gt;= 50 || risultato</tspan>
								<tspan x="1525" dy="50" unicode-bidi="embed"> &lt;=65</tspan>
							</text>
						</g>
						<g>
							<path fill="#55FF55" stroke="#000000" stroke-width="3" stroke-dasharray="none" d="M 1800,5950 L 1750,6050 L 2250,6050 L 2300,5950 Z"/>
							<text x="2025" y="5965" fill="#000000" font-family="Arial" font-size="32pt" text-anchor="middle" direction="ltr">
								<tspan x="2025" dy="50" unicode-bidi="embed">Scrivi &quot;Hai vinto !!&quot;</tspan>
							</text>
						</g>
						<g>
							<path fill="#55FF55" stroke="#000000" stroke-width="3" stroke-dasharray="none" d="M 775,5950 L 725,6050 L 1225,6050 L 1275,5950 Z"/>
							<text x="1000" y="5965" fill="#000000" font-family="Arial" font-size="32pt" text-anchor="middle" direction="ltr">
								<tspan x="1000" dy="50" unicode-bidi="embed">Scrivi &quot;Hai Perso !!&quot;</tspan>
							</text>
						</g>
						<ellipse cx="1525" cy="6150" rx="25" ry="25" fill="#FFAAAA" stroke="#000000" stroke-width="3"/>
						<text x="1975" y="5615" fill="#FFFFFF" font-family="Arial" font-size="32pt" text-anchor="middle" direction="ltr">
							<tspan x="1975" dy="50" unicode-bidi="embed">Vero</tspan>
						</text>
						<text x="1062" y="5615" fill="#FFFFFF" font-family="Arial" font-size="32pt" text-anchor="middle" direction="ltr">
							<tspan x="1062" dy="50" unicode-bidi="embed">Falso</tspan>
						</text>
					</g>
				</g>
				<g>
				</g>
				<ellipse cx="675" cy="6275" rx="25" ry="25" fill="#FFAAAA" stroke="#000000" stroke-width="3"/>
				<text x="1175" y="4340" fill="#FFFFFF" font-family="Arial" font-size="32pt" text-anchor="middle" direction="ltr">
					<tspan x="1175" dy="50" unicode-bidi="embed">Vero</tspan>
				</text>
				<text x="162" y="4340" fill="#FFFFFF" font-family="Arial" font-size="32pt" text-anchor="middle" direction="ltr">
					<tspan x="162" dy="50" unicode-bidi="embed">Falso</tspan>
				</text>
			</g>
			<g>
				<polyline fill="none" stroke="#AAAAAA" stroke-width="6" stroke-dasharray="none" points="950,6525 1900,6525 1900,6711"/>
				<polygon fill="#AAAAAA" stroke="none" points="1900,6725 1913,6700 1886,6700"/>
				<polyline fill="none" stroke="#AAAAAA" stroke-width="6" stroke-dasharray="none" points="1900,8675 1900,8775 713,8775"/>
				<polygon fill="#AAAAAA" stroke="none" points="700,8775 724,8788 724,8761"/>
				<polyline fill="none" stroke="#AAAAAA" stroke-width="6" stroke-dasharray="none" points="400,6525 225,6525 225,8775 636,8775"/>
				<polygon fill="#AAAAAA" stroke="none" points="650,8775 625,8761 625,8788"/>
				<g>
					<path fill="#FFAAAA" stroke="#000000" stroke-width="3" stroke-dasharray="none" d="M 675,6375 L 375,6525 L 675,6675 L 975,6525 Z"/>
					<text x="675" y="6465" fill="#000055" font-family="Arial" font-size="32pt" text-anchor="middle" direction="ltr">
						<tspan x="675" dy="50" unicode-bidi="embed">casecarta == &quot;p&quot; ||</tspan>
						<tspan x="675" dy="50" unicode-bidi="embed"> casecarta == &quot;P&quot;</tspan>
					</text>
				</g>
				<g>
					<polyline fill="none" stroke="#AAAAAA" stroke-width="6" stroke-dasharray="none" points="1900,6875 1900,6936"/>
					<polygon fill="#AAAAAA" stroke="none" points="1900,6950 1913,6925 1886,6925"/>
					<polyline fill="none" stroke="#AAAAAA" stroke-width="6" stroke-dasharray="none" points="1900,7100 1900,7161"/>
					<polygon fill="#AAAAAA" stroke="none" points="1900,7175 1913,7150 1886,7150"/>
					<polyline fill="none" stroke="#AAAAAA" stroke-width="6" stroke-dasharray="none" points="1900,7275 1900,7336"/>
					<polygon fill="#AAAAAA" stroke="none" points="1900,7350 1913,7325 1886,7325"/>
					<g>
						<path fill="#55FF55" stroke="#000000" stroke-width="3" stroke-dasharray="none" d="M 1650,6725 L 1575,6875 L 2150,6875 L 2225,6725 Z"/>
						<text x="1900" y="6740" fill="#000000" font-family="Arial" font-size="32pt" text-anchor="middle" direction="ltr">
							<tspan x="1900" dy="50" unicode-bidi="embed">Scrivi &quot;Hai</tspan>
							<tspan x="1900" dy="50" unicode-bidi="embed"> selezionato: Picche&quot;</tspan>
						</text>
					</g>
					<g>
						<path fill="#55FF55" stroke="#000000" stroke-width="3" stroke-dasharray="none" d="M 1600,6950 L 1525,7100 L 2200,7100 L 2275,6950 Z"/>
						<text x="1900" y="6965" fill="#000000" font-family="Arial" font-size="32pt" text-anchor="middle" direction="ltr">
							<tspan x="1900" dy="50" unicode-bidi="embed">Scrivi &quot;Inserire una lettera in</tspan>
							<tspan x="1900" dy="50" unicode-bidi="embed"> minuscolo&quot;</tspan>
						</text>
					</g>
					<g>
						<path fill="#55AAFF" stroke="#000000" stroke-width="3" stroke-dasharray="none" d="M 1725,7175 L 1675,7275 L 2075,7275 L 2125,7175 Z"/>
						<text x="1900" y="7190" fill="#000000" font-family="Arial" font-size="32pt" text-anchor="middle" direction="ltr">
							<tspan x="1900" dy="50" unicode-bidi="embed">Leggi letterapic</tspan>
						</text>
					</g>
					<g>
						<polyline fill="none" stroke="#AAAAAA" stroke-width="6" stroke-dasharray="none" points="2525,7675 2675,7675 2675,8036"/>
						<polygon fill="#AAAAAA" stroke="none" points="2675,8050 2688,8025 2661,8025"/>
						<polyline fill="none" stroke="#AAAAAA" stroke-width="6" stroke-dasharray="none" points="2675,8550 2675,8650 1938,8650"/>
						<polygon fill="#AAAAAA" stroke="none" points="1925,8650 1949,8663 1949,8636"/>
						<polyline fill="none" stroke="#AAAAAA" stroke-width="6" stroke-dasharray="none" points="1275,7675 1100,7675 1100,8036"/>
						<polygon fill="#AAAAAA" stroke="none" points="1100,8050 1113,8025 1086,8025"/>
						<polyline fill="none" stroke="#AAAAAA" stroke-width="6" stroke-dasharray="none" points="1100,8250 1100,8650 1861,8650"/>
						<polygon fill="#AAAAAA" stroke="none" points="1875,8650 1850,8636 1850,8663"/>
						<g>
							<path fill="#FFAAAA" stroke="#000000" stroke-width="3" stroke-dasharray="none" d="M 1900,7350 L 1250,7675 L 1900,8000 L 2550,7675 Z"/>
							<text x="1900" y="7490" fill="#000055" font-family="Arial" font-size="32pt" text-anchor="middle" direction="ltr">
								<tspan x="1900" dy="50" unicode-bidi="embed">letterapic == &quot;a&quot; || letterapic</tspan>
								<tspan x="1900" dy="50" unicode-bidi="embed"> == &quot;e&quot; || letterapic == &quot;i&quot; ||</tspan>
								<tspan x="1900" dy="50" unicode-bidi="embed"> letterapic == &quot;o&quot; || letterapic</tspan>
								<tspan x="1900" dy="50" unicode-bidi="embed"> == &quot;u&quot; || letterapic == &quot;A&quot; ||</tspan>
								<tspan x="1900" dy="50" unicode-bidi="embed"> letterapic == &quot;E&quot; || letterapic</tspan>
								<tspan x="1900" dy="50" unicode-bidi="embed"> == &quot;I&quot; || letterapic == &quot;O&quot; ||</tspan>
								<tspan x="1900" dy="50" unicode-bidi="embed"> letterapic == &quot;U&quot;</tspan>
							</text>
						</g>
						<g>
							<polyline fill="none" stroke="#AAAAAA" stroke-width="6" stroke-dasharray="none" points="2675,8150 2675,8211"/>
							<polygon fill="#AAAAAA" stroke="none" points="2675,8225 2688,8200 2661,8200"/>
							<polyline fill="none" stroke="#AAAAAA" stroke-width="6" stroke-dasharray="none" points="2675,8325 2675,8386"/>
							<polygon fill="#AAAAAA" stroke="none" points="2675,8400 2688,8375 2661,8375"/>
							<g>
								<path fill="#55FF55" stroke="#000000" stroke-width="3" stroke-dasharray="none" d="M 2375,8050 L 2325,8150 L 2975,8150 L 3025,8050 Z"/>
								<text x="2675" y="8065" fill="#000000" font-family="Arial" font-size="32pt" text-anchor="middle" direction="ltr">
									<tspan x="2675" dy="50" unicode-bidi="embed">Scrivi &quot;Inserire un numero&quot;</tspan>
								</text>
							</g>
							<g>
								<path fill="#55AAFF" stroke="#000000" stroke-width="3" stroke-dasharray="none" d="M 2525,8225 L 2475,8325 L 2825,8325 L 2875,8225 Z"/>
								<text x="2675" y="8240" fill="#000000" font-family="Arial" font-size="32pt" text-anchor="middle" direction="ltr">
									<tspan x="2675" dy="50" unicode-bidi="embed">Leggi num1</tspan>
								</text>
							</g>
							<g>
								<path fill="#55FF55" stroke="#000000" stroke-width="3" stroke-dasharray="none" d="M 2450,8400 L 2375,8550 L 2900,8550 L 2975,8400 Z"/>
								<text x="2675" y="8415" fill="#000000" font-family="Arial" font-size="32pt" text-anchor="middle" direction="ltr">
									<tspan x="2675" dy="50" unicode-bidi="embed">Scrivi &quot;Hai inserito il</tspan>
									<tspan x="2675" dy="50" unicode-bidi="embed"> numero: &quot; &amp;num1</tspan>
								</text>
							</g>
						</g>
						<g>
							<path fill="#55FF55" stroke="#000000" stroke-width="3" stroke-dasharray="none" d="M 825,8050 L 725,8250 L 1375,8250 L 1475,8050 Z"/>
							<text x="1100" y="8065" fill="#000000" font-family="Arial" font-size="32pt" text-anchor="middle" direction="ltr">
								<tspan x="1100" dy="50" unicode-bidi="embed">Scrivi &quot;La carta che hai</tspan>
								<tspan x="1100" dy="50" unicode-bidi="embed"> selezionato e' di colore</tspan>
								<tspan x="1100" dy="50" unicode-bidi="embed"> NERA&quot;</tspan>
							</text>
						</g>
						<ellipse cx="1900" cy="8650" rx="25" ry="25" fill="#FFAAAA" stroke="#000000" stroke-width="3"/>
						<text x="2625" y="7590" fill="#FFFFFF" font-family="Arial" font-size="32pt" text-anchor="middle" direction="ltr">
							<tspan x="2625" dy="50" unicode-bidi="embed">Vero</tspan>
						</text>
						<text x="1162" y="7590" fill="#FFFFFF" font-family="Arial" font-size="32pt" text-anchor="middle" direction="ltr">
							<tspan x="1162" dy="50" unicode-bidi="embed">Falso</tspan>
						</text>
					</g>
				</g>
				<g>
				</g>
				<ellipse cx="675" cy="8775" rx="25" ry="25" fill="#FFAAAA" stroke="#000000" stroke-width="3"/>
				<text x="1050" y="6440" fill="#FFFFFF" font-family="Arial" font-size="32pt" text-anchor="middle" direction="ltr">
					<tspan x="1050" dy="50" unicode-bidi="embed">Vero</tspan>
				</text>
				<text x="287" y="6440" fill="#FFFFFF" font-family="Arial" font-size="32pt" text-anchor="middle" direction="ltr">
					<tspan x="287" dy="50" unicode-bidi="embed">Falso</tspan>
				</text>
			</g>
		</g>
	</g>
</svg>
